#Comment line ignore any data following # character 
#Hierarchical Translation and Rotation (.htr) file 
[Header]	
#Header keywords are followed by a single value 
FileType HTR		#Single word string
DataType HTRS		#Translation followed by rotation and scale data
FileVersion 1		#integer
NumSegments 64		#integer
NumFrames 3		#integer
DataFrameRate 30		#integer, data frame rate in this file
EulerRotationOrder ZYX
CalibrationUnits mm
RotationUnits Degrees
GlobalAxisofGravity Y
BoneLengthAxis Y
ScaleFactor 1.00
[SegmentNames&Hierarchy]
#CHILD	PARENT
Pinger_Root GLOBAL
Pelvis Pinger_Root
L_Hip Pelvis
R_Hip Pelvis
Rear_Leg01 Pelvis
Spine1 Pelvis
L_Leg01 L_Hip
L_Leg02 L_Leg01
L_Leg03 L_Leg02
L_Foot L_Leg03
L_Toe1_01 L_Foot
L_Toe2_01 L_Foot
L_Toe3_01 L_Foot
planeAlignerLeft L_Foot
L_Toe1_02 L_Toe1_01
L_Toe1_03 L_Toe1_02
L_Toe2_02 L_Toe2_01
L_Toe2_03 L_Toe2_02
L_Toe3_02 L_Toe3_01
L_Toe3_03 L_Toe3_02
planeLockWeightLeft planeAlignerLeft
R_Leg01 R_Hip
R_Leg02 R_Leg01
R_Leg03 R_Leg02
R_Foot R_Leg03
planeAlignerRight R_Foot
R_Toe1_01 R_Foot
R_Toe2_01 R_Foot
R_Toe3_01 R_Foot
planeLockWeightRight planeAlignerRight
R_Toe1_02 R_Toe1_01
R_Toe1_03 R_Toe1_02
R_Toe2_02 R_Toe2_01
R_Toe2_03 R_Toe2_02
R_Toe3_02 R_Toe3_01
R_Toe3_03 R_Toe3_02
Rear_Leg02 Rear_Leg01
Rear_Leg03 Rear_Leg02
Rear_Leg04 Rear_Leg03
Rear_Foot Rear_Leg04
planeAlignerCenter Rear_Foot
Rear_Toe1_01 Rear_Foot
Rear_Toe2_01 Rear_Foot
Rear_Toe3_01 Rear_Foot
planeLockWeightCenter planeAlignerCenter
Rear_Toe1_02 Rear_Toe1_01
Rear_Toe1_03 Rear_Toe1_02
Rear_Toe2_02 Rear_Toe2_01
Rear_Toe2_03 Rear_Toe2_02
Rear_Toe3_02 Rear_Toe3_01
Rear_Toe3_03 Rear_Toe3_02
Back_Bone Spine1
Head Spine1
Motor_Bone Back_Bone
Ping_Mechanism Back_Bone
BN_LookIK Head
bottomMouth Head
L_Mouth01 Head
L_mouthFront Head
mouthGun Head
R_Mouth01 Head
R_mouthFront Head
TopMouth Head
weapon_bone Head
[BasePosition]
#SegmentName Tx, Ty, Tz, Rx, Ry, Rz, BoneLength
Pinger_Root 0.000000 0.000000 0.000000 -90.000000 0.000000 0.000000 10.000000 
Pelvis 0.000000 0.000000 0.000000 0.000000 0.000000 0.000000 10.000000 
L_Hip 0.000000 0.000000 0.000000 0.000000 0.000000 0.000000 10.000000 
R_Hip 0.000000 0.000000 0.000000 0.000000 0.000000 0.000000 10.000000 
Rear_Leg01 0.000000 0.000000 0.000000 0.000000 0.000000 0.000000 10.000000 
Spine1 0.000000 0.000000 0.000000 0.000000 0.000000 0.000000 10.000000 
L_Leg01 0.000000 0.000000 0.000000 0.000000 0.000000 0.000000 10.000000 
L_Leg02 0.000000 0.000000 0.000000 0.000000 0.000000 0.000000 10.000000 
L_Leg03 0.000000 0.000000 0.000000 0.000000 0.000000 0.000000 10.000000 
L_Foot 0.000000 0.000000 0.000000 0.000000 0.000000 0.000000 10.000000 
L_Toe1_01 0.000000 0.000000 0.000000 0.000000 0.000000 0.000000 10.000000 
L_Toe2_01 0.000000 0.000000 0.000000 0.000000 0.000000 0.000000 10.000000 
L_Toe3_01 0.000000 0.000000 0.000000 0.000000 0.000000 0.000000 10.000000 
planeAlignerLeft 0.000000 0.000000 0.000000 0.000000 0.000000 0.000000 10.000000 
L_Toe1_02 0.000000 0.000000 0.000000 0.000000 0.000000 0.000000 10.000000 
L_Toe1_03 0.000000 0.000000 0.000000 0.000000 0.000000 0.000000 10.000000 
L_Toe2_02 0.000000 0.000000 0.000000 0.000000 0.000000 0.000000 10.000000 
L_Toe2_03 0.000000 0.000000 0.000000 0.000000 0.000000 0.000000 10.000000 
L_Toe3_02 0.000000 0.000000 0.000000 0.000000 0.000000 0.000000 10.000000 
L_Toe3_03 0.000000 0.000000 0.000000 0.000000 0.000000 0.000000 10.000000 
planeLockWeightLeft 0.000000 0.000000 0.000000 0.000000 0.000000 0.000000 10.000000 
R_Leg01 0.000000 0.000000 0.000000 0.000000 0.000000 0.000000 10.000000 
R_Leg02 0.000000 0.000000 0.000000 0.000000 0.000000 0.000000 10.000000 
R_Leg03 0.000000 0.000000 0.000000 0.000000 0.000000 0.000000 10.000000 
R_Foot 0.000000 0.000000 0.000000 0.000000 0.000000 0.000000 10.000000 
planeAlignerRight 0.000000 0.000000 0.000000 0.000000 0.000000 0.000000 10.000000 
R_Toe1_01 0.000000 0.000000 0.000000 0.000000 0.000000 0.000000 10.000000 
R_Toe2_01 0.000000 0.000000 0.000000 0.000000 0.000000 0.000000 10.000000 
R_Toe3_01 0.000000 0.000000 0.000000 0.000000 0.000000 0.000000 10.000000 
planeLockWeightRight 0.000000 0.000000 0.000000 0.000000 0.000000 0.000000 10.000000 
R_Toe1_02 0.000000 0.000000 0.000000 0.000000 0.000000 0.000000 10.000000 
R_Toe1_03 0.000000 0.000000 0.000000 0.000000 0.000000 0.000000 10.000000 
R_Toe2_02 0.000000 0.000000 0.000000 0.000000 0.000000 0.000000 10.000000 
R_Toe2_03 0.000000 0.000000 0.000000 0.000000 0.000000 0.000000 10.000000 
R_Toe3_02 0.000000 0.000000 0.000000 0.000000 0.000000 0.000000 10.000000 
R_Toe3_03 0.000000 0.000000 0.000000 0.000000 0.000000 0.000000 10.000000 
Rear_Leg02 0.000000 0.000000 0.000000 0.000000 0.000000 0.000000 10.000000 
Rear_Leg03 0.000000 0.000000 0.000000 0.000000 0.000000 0.000000 10.000000 
Rear_Leg04 0.000000 0.000000 0.000000 0.000000 0.000000 0.000000 10.000000 
Rear_Foot 0.000000 0.000000 0.000000 0.000000 0.000000 0.000000 10.000000 
planeAlignerCenter 0.000000 0.000000 0.000000 0.000000 0.000000 0.000000 10.000000 
Rear_Toe1_01 0.000000 0.000000 0.000000 0.000000 0.000000 0.000000 10.000000 
Rear_Toe2_01 0.000000 0.000000 0.000000 0.000000 0.000000 0.000000 10.000000 
Rear_Toe3_01 0.000000 0.000000 0.000000 0.000000 0.000000 0.000000 10.000000 
planeLockWeightCenter 0.000000 0.000000 0.000000 0.000000 0.000000 0.000000 10.000000 
Rear_Toe1_02 0.000000 0.000000 0.000000 0.000000 0.000000 0.000000 10.000000 
Rear_Toe1_03 0.000000 0.000000 0.000000 0.000000 0.000000 0.000000 10.000000 
Rear_Toe2_02 0.000000 0.000000 0.000000 0.000000 0.000000 0.000000 10.000000 
Rear_Toe2_03 0.000000 0.000000 0.000000 0.000000 0.000000 0.000000 10.000000 
Rear_Toe3_02 0.000000 0.000000 0.000000 0.000000 0.000000 0.000000 10.000000 
Rear_Toe3_03 0.000000 0.000000 0.000000 0.000000 0.000000 0.000000 10.000000 
Back_Bone 0.000000 0.000000 0.000000 0.000000 0.000000 0.000000 10.000000 
Head 0.000000 0.000000 0.000000 0.000000 0.000000 0.000000 10.000000 
Motor_Bone 0.000000 0.000000 0.000000 0.000000 0.000000 0.000000 10.000000 
Ping_Mechanism 0.000000 0.000000 0.000000 0.000000 0.000000 0.000000 10.000000 
BN_LookIK 0.000000 0.000000 0.000000 0.000000 0.000000 0.000000 10.000000 
bottomMouth 0.000000 0.000000 0.000000 0.000000 0.000000 0.000000 10.000000 
L_Mouth01 0.000000 0.000000 0.000000 0.000000 0.000000 0.000000 10.000000 
L_mouthFront 0.000000 0.000000 0.000000 0.000000 0.000000 0.000000 10.000000 
mouthGun 0.000000 0.000000 0.000000 0.000000 0.000000 0.000000 10.000000 
R_Mouth01 0.000000 0.000000 0.000000 0.000000 0.000000 0.000000 10.000000 
R_mouthFront 0.000000 0.000000 0.000000 0.000000 0.000000 0.000000 10.000000 
TopMouth 0.000000 0.000000 0.000000 0.000000 0.000000 0.000000 10.000000 
weapon_bone 0.000000 0.000000 0.000000 0.000000 0.000000 0.000000 10.000000 
#Beginning of Data. Separated by tabs
#Fr	Tx	Ty	Tz	Rx	Ry	Rz	SF
[Pinger_Root]
18 -2203.703613 0.000000 0.000000 -0.000075 -0.000000 -0.000020 2203.703613
19 -2333.333008 0.000000 0.000000 -0.000075 -0.000000 -0.000020 2333.333008
20 -2462.962891 0.000000 0.000000 -0.000075 -0.000000 -0.000020 2462.962891
[Pelvis]
18 -656.760681 -362.392426 4977.245605 48.942238 -77.099983 1.832701 5033.451660
19 -598.616943 -356.656311 4961.092285 47.018391 -76.321396 5.533363 5009.788574
20 -545.938477 -340.201202 4959.539063 43.597717 -75.089325 10.669117 5001.081055
[L_Hip]
18 5.766392 125.831482 872.656799 -178.250168 -81.786369 87.376007 881.701050
19 5.766392 125.831482 872.656799 -178.250168 -81.786369 87.376007 881.701050
20 5.766392 125.831482 872.656799 -178.250168 -81.786369 87.376007 881.701050
[R_Hip]
18 5.765438 125.836372 -872.654907 -1.748770 81.786041 87.376961 881.699829
19 5.765438 125.836372 -872.654907 -1.748770 81.786041 87.376961 881.699829
20 5.765438 125.836372 -872.654907 -1.748770 81.786041 87.376961 881.699829
[Rear_Leg01]
18 -192.298416 -925.602966 -0.001907 178.088806 22.470989 176.002182 945.367432
19 -192.298416 -925.602966 -0.001907 -177.458160 24.029951 -176.440872 945.367432
20 -192.298416 -925.602966 -0.001907 -172.731964 25.463013 -168.938660 945.367432
[Spine1]
18 290.604584 5.007505 0.000477 -38.806934 10.494114 31.388151 290.647736
19 290.604584 5.007505 0.000477 -41.225826 9.942093 30.447765 290.647736
20 290.604584 5.007505 0.000477 -43.821335 9.059895 29.840584 290.647736
[L_Leg01]
18 761.932007 -0.002384 -0.069261 71.379852 15.213733 -104.471329 761.932068
19 761.932007 -0.002384 -0.069261 71.879944 16.742949 -105.730431 761.932068
20 761.932007 -0.002384 -0.069261 72.349297 18.124968 -107.411697 761.932068
[L_Leg02]
18 1441.140503 -0.000954 -0.000715 -1.313208 0.811343 -82.423851 1441.140503
19 1441.140503 -0.000954 -0.000715 -1.327948 0.798354 -81.258781 1441.140503
20 1441.140503 -0.000954 -0.000715 -1.328053 0.804562 -79.022675 1441.140503
[L_Leg03]
18 1686.963989 -0.000715 -0.000954 0.104685 -0.010684 82.521690 1686.963989
19 1686.963989 -0.000715 -0.000954 0.097635 -0.011703 83.187889 1686.963989
20 1686.963989 -0.000715 -0.000954 0.104692 -0.010612 82.442772 1686.963989
[L_Foot]
18 3041.570068 -30.715107 11.297464 0.757509 11.352590 97.021919 3041.746094
19 3041.570068 -30.715107 11.297464 0.642298 10.298992 96.683754 3041.746094
20 3041.570068 -30.715107 11.297464 0.533754 9.244738 96.348763 3041.746094
[L_Toe1_01]
18 -188.216690 -224.732346 -21.137953 89.041573 -1.724777 -153.907516 293.899567
19 -188.216690 -224.732346 -21.137953 88.996948 -1.695671 -152.373718 293.899567
20 -188.216690 -224.732346 -21.137953 88.953117 -1.665386 -150.840240 293.899567
[L_Toe2_01]
18 200.746536 -219.926590 148.838394 -76.002090 -12.038284 -52.509464 332.896027
19 200.746536 -219.926590 148.838394 -75.741936 -11.744598 -53.835262 332.896027
20 200.746536 -219.926590 148.838394 -75.489067 -11.445144 -55.158085 332.896027
[L_Toe3_01]
18 188.832520 -219.859131 -191.078659 -108.151855 14.879178 -54.449196 347.140900
19 188.832520 -219.859131 -191.078659 -108.476341 14.495815 -55.776962 347.140900
20 188.832520 -219.859131 -191.078659 -108.790962 14.105341 -57.099987 347.140900
[planeAlignerLeft]
18 -68.579712 -719.241394 -0.004883 0.000000 -90.000000 -90.001900 722.503540
19 -70.903290 -735.932556 -0.008443 0.000000 -90.000000 -90.001900 739.340271
20 -73.226875 -752.623779 -0.012004 0.000000 -90.000000 -90.001900 756.177673
[L_Toe1_02]
18 413.761139 0.000477 0.000000 0.001388 -25.496168 0.001388 413.761139
19 413.761139 0.000477 0.000000 0.001386 -25.716486 0.001386 413.761139
20 413.761139 0.000477 0.000000 0.001384 -25.936796 0.001384 413.761139
[L_Toe1_03]
18 464.317322 0.000358 -0.000089 0.004733 61.274586 0.004733 464.317322
19 464.317322 0.000358 -0.000089 0.004376 58.885731 0.004376 464.317322
20 464.317322 0.000358 -0.000089 0.004059 56.373413 0.004059 464.317322
[L_Toe2_02]
18 342.235809 -0.000477 0.000238 0.001181 -77.148933 0.001181 342.235809
19 342.235809 -0.000477 0.000238 0.001182 -76.747871 0.001182 342.235809
20 342.235809 -0.000477 0.000238 0.001182 -76.346779 0.001182 342.235809
[L_Toe2_03]
18 420.210846 -0.000715 0.000000 -179.995621 79.259171 -179.992111 420.210846
19 420.210846 -0.000715 0.000000 -179.994537 80.860313 -179.991028 420.210846
20 420.210846 -0.000715 0.000000 -179.993011 82.462250 -179.989502 420.210846
[L_Toe3_02]
18 329.270111 0.000954 0.000000 0.001177 -80.797577 0.001177 329.270111
19 329.270111 0.000954 0.000000 0.001178 -80.426216 0.001178 329.270111
20 329.270111 0.000954 0.000000 0.001178 -80.054871 0.001178 329.270111
[L_Toe3_03]
18 439.137451 -0.001907 0.000954 -179.996567 77.304680 -179.993042 439.137451
19 439.137451 -0.001907 0.000954 -179.995865 78.795456 -179.992355 439.137451
20 439.137451 -0.001907 0.000954 -179.994965 80.286469 -179.991455 439.137451
[planeLockWeightLeft]
18 999.998840 0.097988 0.076249 -0.011826 -0.004376 0.005620 999.998901
19 999.998840 0.097985 0.076240 -0.011826 -0.004376 0.005620 999.998901
20 999.998840 0.097982 0.076232 -0.011826 -0.004376 0.005620 999.998901
[R_Leg01]
18 761.455627 -0.001907 -0.000358 78.113777 -48.493229 67.336838 761.455688
19 761.455627 -0.001907 -0.000358 85.418922 -45.008636 64.237984 761.455688
20 761.455627 -0.001907 -0.000358 89.519997 -39.996780 63.954369 761.455688
[R_Leg02]
18 1441.140625 0.000000 -0.000238 -0.680130 -0.014412 -151.793777 1441.140625
19 1441.140625 0.000000 -0.000238 -0.898446 -0.146254 -152.882324 1441.140625
20 1441.140625 0.000000 -0.000238 -1.072503 -0.334551 -150.671646 1441.140625
[R_Leg03]
18 1686.963989 0.000954 0.001431 0.017372 -0.005576 114.546547 1686.963989
19 1686.963989 0.000954 0.001431 0.053544 -0.024109 124.801262 1686.963989
20 1686.963989 0.000954 0.001431 0.087793 -0.050408 133.843567 1686.963989
[R_Foot]
18 3041.560059 -30.531288 -11.204481 36.022690 -33.038933 39.073845 3041.734131
19 3041.560059 -30.531288 -11.204481 24.971004 -36.222786 42.648144 3041.734131
20 3041.560059 -30.531288 -11.204481 12.974639 -39.116802 46.944134 3041.734131
[planeAlignerRight]
18 -211.020203 -810.910645 13.645476 0.000000 -89.960434 -90.005180 838.028503
19 -216.993698 -806.295715 13.457717 0.000000 -89.960434 -90.005180 835.092896
20 -222.967224 -801.680725 13.269958 0.000000 -89.960434 -90.005180 832.215393
[R_Toe1_01]
18 -188.383347 -224.864899 21.052242 91.383667 0.745948 -144.701218 294.101532
19 -188.383347 -224.864899 21.052242 91.354324 0.823797 -144.880096 294.101532
20 -188.383347 -224.864899 21.052242 91.324738 0.901549 -145.059052 294.101532
[R_Toe2_01]
18 200.637817 -220.002121 -148.787384 -107.540741 5.872047 -82.473480 332.857574
19 200.637817 -220.002121 -148.787384 -107.590446 6.259331 -82.924377 332.857574
20 200.637817 -220.002121 -148.787384 -107.605949 6.761100 -82.828674 332.857574
[R_Toe3_01]
18 188.606735 -220.092957 191.126343 -67.233696 -8.855350 -83.931564 347.192566
19 188.606735 -220.092957 191.126343 -67.201004 -9.118920 -84.382904 347.192566
20 188.606735 -220.092957 191.126343 -67.208893 -9.470741 -84.284988 347.192566
[planeLockWeightRight]
18 -0.000087 -0.000371 0.076512 -0.011823 -0.004379 -0.000027 0.076513
19 -0.000109 -0.000349 0.076490 -0.011823 -0.004379 -0.000027 0.076491
20 -0.000131 -0.000327 0.076468 -0.011823 -0.004379 -0.000027 0.076469
[R_Toe1_02]
18 413.762085 0.000477 -0.000119 0.001410 -22.631208 0.001410 413.762085
19 413.762085 0.000477 -0.000119 0.001407 -23.032557 0.001407 413.762085
20 413.762085 0.000477 -0.000119 0.001404 -23.433914 0.001404 413.762085
[R_Toe1_03]
18 464.317810 0.000000 0.001088 -0.001076 80.166565 0.001264 464.317810
19 464.317810 0.000000 0.001088 0.005266 78.408470 0.006438 464.317810
20 464.317810 0.000000 0.001088 0.010097 76.650749 0.010097 464.317810
[R_Toe2_02]
18 342.234741 -0.000954 0.000238 -0.002332 -80.202309 -0.002332 342.234741
19 342.234741 -0.000954 0.000238 -0.002331 -80.283272 -0.002331 342.234741
20 342.234741 -0.000954 0.000238 -0.002331 -80.364143 -0.002331 342.234741
[R_Toe2_03]
18 420.210846 0.000715 -0.000268 -179.996017 59.311390 -179.999634 420.210846
19 420.210846 0.000715 -0.000268 -179.996094 58.134712 -179.999725 420.210846
20 420.210846 0.000715 -0.000268 -179.996155 56.958160 -179.999802 420.210846
[R_Toe3_02]
18 329.270355 -0.000477 -0.000954 0.001175 -83.814575 0.001175 329.270355
19 329.270355 -0.000477 -0.000954 0.001175 -83.918205 0.001175 329.270355
20 329.270355 -0.000477 -0.000954 0.001175 -84.021744 0.001175 329.270355
[R_Toe3_03]
18 439.137939 0.000238 0.001431 -179.995041 58.591568 -179.987778 439.137939
19 439.137939 0.000238 0.001431 -179.995361 57.426544 -179.988068 439.137939
20 439.137939 0.000238 0.001431 -179.995651 56.261616 -179.988342 439.137939
[Rear_Leg02]
18 1162.777710 -0.029802 0.005960 6.135277 -5.494944 -151.211151 1162.777710
19 1162.777710 -0.029802 0.005960 6.316410 -5.118079 -146.404800 1162.777710
20 1162.777710 -0.029802 0.005960 6.117829 -4.702593 -140.530945 1162.777710
[Rear_Leg03]
18 607.192505 -0.013351 -0.073195 0.010127 -0.005797 75.927567 607.192505
19 607.192505 -0.013351 -0.073195 0.010101 -0.005842 76.437485 607.192505
20 607.192505 -0.013351 -0.073195 0.010075 -0.005886 76.947365 607.192505
[Rear_Leg04]
18 995.874512 -0.020504 -0.011921 -0.042504 -0.018923 86.158562 995.874573
19 995.874512 -0.020504 -0.011921 -0.042853 -0.018119 88.317390 995.874573
20 995.874512 -0.020504 -0.011921 -0.043033 -0.017688 89.467369 995.874573
[Rear_Foot]
18 3096.176270 -0.067472 -0.041425 -31.019749 73.781670 125.232643 3096.176270
19 3096.176270 -0.067472 -0.041425 -29.187260 73.398308 125.746338 3096.176270
20 3096.176270 -0.067472 -0.041425 -27.406933 73.010422 126.206406 3096.176270
[planeAlignerCenter]
18 1.146011 -74.450531 -695.522034 0.000009 0.000003 -179.999985 699.496277
19 1.145782 -69.913490 -712.952271 0.000009 0.000003 -179.999985 716.372864
20 1.145401 -57.961575 -735.845154 0.000009 0.000003 -179.999985 738.125305
[Rear_Toe1_01]
18 0.653352 83.966492 -371.173737 0.073959 16.793793 90.029968 380.553192
19 0.653352 83.966492 -371.173737 0.075197 18.152458 90.034622 380.553192
20 0.653352 83.966492 -371.173737 0.070816 20.225349 90.035049 380.553192
[Rear_Toe2_01]
18 178.200760 -294.826019 -362.060547 -0.779681 45.414120 -73.587257 499.765686
19 178.200760 -294.826019 -362.060547 -0.772164 46.408375 -73.503357 499.765686
20 178.200760 -294.826019 -362.060547 -0.630799 47.954269 -73.146584 499.765686
[Rear_Toe3_01]
18 -153.359680 -308.780914 -362.060852 0.747829 45.422546 -108.461235 499.952881
19 -153.359680 -308.780914 -362.060852 0.738585 46.416439 -108.552567 499.952881
20 -153.359680 -308.780914 -362.060852 0.582622 47.957996 -108.951180 499.952881
[planeLockWeightCenter]
18 999.999878 0.000334 0.076272 -0.011814 -0.004373 -0.000015 999.999878
19 999.999878 0.000322 0.076262 -0.011814 -0.004373 -0.000015 999.999878
20 999.999878 0.000309 0.076253 -0.011814 -0.004373 -0.000015 999.999878
[Rear_Toe1_02]
18 379.707825 0.194073 0.000477 -0.000767 -33.624729 0.000838 379.707855
19 379.707825 0.194073 0.000477 -0.000767 -33.624729 0.000838 379.707855
20 379.707825 0.194073 0.000477 -0.000767 -33.624729 0.000838 379.707855
[Rear_Toe1_03]
18 500.129700 0.165701 0.000119 -179.989639 82.350632 -179.993134 500.129761
19 500.129700 0.165701 0.000119 -179.987061 84.116936 -179.990555 500.129761
20 500.129700 0.165701 0.000119 -179.972946 87.396988 -179.976440 500.129761
[Rear_Toe2_02]
18 340.494507 0.000238 -0.000954 0.001185 -73.966621 0.001185 340.494507
19 340.494507 0.000238 -0.000954 0.001186 -73.601746 0.001186 340.494507
20 340.494507 0.000238 -0.000954 0.001185 -73.808975 0.001185 340.494507
[Rear_Toe2_03]
18 433.103577 0.000000 0.000238 0.009929 76.423958 0.009929 433.103546
19 433.103577 0.000000 0.000238 0.009497 75.802132 0.009497 433.103546
20 433.103577 0.000000 0.000238 0.009572 75.915009 0.009572 433.103546
[Rear_Toe3_02]
18 340.494141 -0.000358 -0.000477 0.001185 -73.991356 0.001185 340.494171
19 340.494141 -0.000358 -0.000477 0.001186 -73.626457 0.001186 340.494171
20 340.494141 -0.000358 -0.000477 0.001185 -73.815125 0.001185 340.494171
[Rear_Toe3_03]
18 433.103577 0.001431 -0.000238 0.009966 76.474319 0.009966 433.103546
19 433.103577 0.001431 -0.000238 0.009522 75.839745 0.009522 433.103546
20 433.103577 0.001431 -0.000238 0.009585 75.933823 0.009585 433.103546
[Back_Bone]
18 1312.175781 -701.934692 0.000954 -0.529539 -3.650512 -81.000999 1488.125488
19 1312.175781 -701.934692 0.000954 -0.094081 -3.656273 -82.832481 1488.125488
20 1312.175781 -701.934692 0.000954 0.341339 -3.648141 -84.663963 1488.125488
[Head]
18 1406.159424 809.709290 0.001431 -10.337333 3.990765 4.532746 1622.625488
19 1406.159424 809.709290 0.001431 -9.922739 3.807623 4.572611 1622.625488
20 1406.159424 809.709290 0.001431 -9.508360 3.624197 4.611139 1622.625488
[Motor_Bone]
18 1158.364380 -417.834747 0.000477 5.387621 -1.836375 -107.820099 1231.419434
19 1158.364380 -417.834747 0.000477 -0.064466 0.133410 -105.853729 1231.419434
20 1158.364380 -417.834747 0.000477 -5.513655 1.191246 -104.796577 1231.419434
[Ping_Mechanism]
18 1213.558960 -421.938354 63.694202 0.000103 -0.000053 82.120995 1286.395874
19 1216.788696 -423.554077 68.027946 0.000103 -0.000053 82.120995 1290.193970
20 1222.943970 -425.215454 73.948669 0.000103 -0.000053 82.120995 1296.868774
[BN_LookIK]
18 193.241119 1380.371704 -0.002861 0.000000 89.965736 -31.038179 1393.832153
19 193.241119 1380.371704 -0.002861 0.000000 89.965736 -31.038179 1393.832153
20 193.241119 1380.371704 -0.002861 0.000000 89.965736 -31.038179 1393.832153
[bottomMouth]
18 -435.092926 615.759399 -0.000954 -0.000022 0.000016 73.527184 753.966492
19 -435.092926 615.759399 -0.000954 -0.000022 0.000016 73.527184 753.966492
20 -435.092926 615.759399 -0.000954 -0.000022 0.000016 73.527184 753.966492
[L_Mouth01]
18 554.440979 7.658243 838.222046 150.204178 23.759130 109.605339 1005.027161
19 554.440979 7.658243 838.222046 150.204178 23.759130 109.605339 1005.027161
20 554.440979 7.658243 838.222046 150.204178 23.759130 109.605339 1005.027161
[L_mouthFront]
18 551.629089 934.514771 339.150421 0.000081 2.804060 79.119301 1136.941284
19 551.629089 934.514771 339.150421 0.000081 2.804060 79.119301 1136.941284
20 551.629089 934.514771 339.150421 0.000081 2.804060 79.119301 1136.941284
[mouthGun]
18 55.332661 1627.420898 0.000000 0.000023 0.000009 -11.038128 1628.361328
19 55.332661 1627.420898 0.000000 0.000023 0.000009 -11.038128 1628.361328
20 55.332661 1627.420898 0.000000 0.000023 0.000009 -11.038128 1628.361328
[R_Mouth01]
18 554.442383 7.659197 -838.223938 29.795891 -23.759109 109.605331 1005.029541
19 554.442383 7.659197 -838.223938 29.795891 -23.759109 109.605331 1005.029541
20 554.442383 7.659197 -838.223938 29.795891 -23.759109 109.605331 1005.029541
[R_mouthFront]
18 551.629089 934.514282 -339.151367 0.000029 -2.803930 79.119133 1136.941162
19 551.629089 934.514282 -339.151367 0.000029 -2.803930 79.119133 1136.941162
20 551.629089 934.514282 -339.151367 0.000029 -2.803930 79.119133 1136.941162
[TopMouth]
18 461.269867 -56.106091 -0.008583 -0.000059 -0.000268 92.025169 464.669525
19 461.269867 -56.106091 -0.008583 -0.000059 -0.000268 92.025169 464.669525
20 461.269867 -56.106091 -0.008583 -0.000059 -0.000268 92.025169 464.669525
[weapon_bone]
18 -987.239868 1448.372803 0.001431 0.000000 89.965736 -31.038221 1752.833740
19 -987.239868 1448.372803 0.001431 0.000000 89.965736 -31.038221 1752.833740
20 -987.239868 1448.372803 0.001431 0.000000 89.965736 -31.038221 1752.833740
